<svg width="469" height="152" viewBox="0 0 469 152" fill="none" xmlns="http://www.w3.org/2000/svg">
<path d="M105.718 50.7381C118.48 33.4065 135.258 39.7893 141.637 41.0388" stroke="#FFC93D" stroke-width="8" stroke-linecap="round"/>
<path d="M90.0504 40.8886C101.148 22.4473 88.8094 9.40915 85.2054 4" stroke="#FFC93D" stroke-width="8" stroke-linecap="round"/>
<path d="M70.764 86.9245C84.5478 96.1182 102.305 93.7007 110.426 81.525C118.547 69.3493 113.957 52.026 100.173 42.8324C86.389 33.6387 68.6316 36.0562 60.5106 48.2319C52.3896 60.4077 56.9802 77.7309 70.764 86.9245Z" fill="#FFC93D"/>
<path d="M120.539 130.341C113.879 145.732 98.3484 143.787 85.4534 133.384C72.5592 122.98 67.2423 99.414 76.5891 85.4003C85.9364 71.3868 88.4744 68.7305 99.8424 84.126C110.323 98.32 125.534 115.642 120.539 130.341Z" stroke="#FFC93D" stroke-width="9"/>
<path d="M10.6479 57.0447C-1.00347 69.1069 6.75933 82.6988 21.3184 90.6065C35.8776 98.514 59.6781 94.3687 69.0249 80.3551C78.3718 66.3415 75.4239 61.6251 56.8424 57.0447C39.7115 52.8219 22.2989 46.7854 10.6479 57.0447Z" stroke="#FFC93D" stroke-width="9"/>
<path fill-rule="evenodd" clip-rule="evenodd" d="M26.3163 92.7454C18.3437 108.603 20.4623 133.822 30.1193 146.962C44.0251 149.54 69.7683 142.916 81.5959 129.634C79.8139 127.573 78.2429 125.24 76.9114 122.726C73.0049 128.039 65.436 132.8 56.2599 135.953C48.3563 138.67 40.5024 139.767 34.8065 139.462C31.7994 134.042 29.7977 126.446 29.469 118.263C29.0947 108.948 30.9419 100.247 34.5388 94.4074C31.6915 94.1495 28.9184 93.5985 26.3163 92.7454ZM65.8281 84.2437C67.0213 83.0467 68.0947 81.7497 69.0249 80.3551C69.6371 79.4372 70.1917 78.5361 70.6885 77.6521C72.0883 78.3257 73.4581 79.1048 74.7875 79.9916C76.0906 80.8607 77.3132 81.8054 78.4533 82.8159C77.8254 83.617 77.2038 84.4786 76.5891 85.4003C75.6625 86.7896 74.88 88.2727 74.2347 89.8276C73.0683 88.6636 71.7715 87.5961 70.3484 86.647C68.8971 85.679 67.3827 84.8794 65.8281 84.2437Z" fill="#FFC93D"/>
<path d="M65.3577 79.7121L79.5005 89.1452L72.8403 106.339L81.5715 130.193L25.8324 93.0162L49.2688 91.2186L65.3577 79.7121Z" fill="#FFC93D"/>
<path d="M24.7162 123.524L53.8337 142.945L31.2291 145.298L24.7162 123.524Z" fill="#FFC93D"/>
<path d="M24.7162 123.524L53.8337 142.945L31.2291 145.298L24.7162 123.524Z" fill="#FFC93D"/>
<path d="M28.6068 88.8566L54.991 106.455L34.0305 109.303L28.6068 88.8566Z" fill="#FFC93D"/>
<path d="M47.9982 101.79L74.3824 119.388L53.4219 122.236L47.9982 101.79Z" fill="#FFC93D"/>
<path d="M37.758 94.9603L65.4686 113.443L43.8449 115.849L37.758 94.9603Z" fill="#FFC93D"/>
<path d="M57.1494 107.894L84.8604 126.377L63.2363 128.782L57.1494 107.894Z" fill="#FFC93D"/>
<path d="M189.443 125.079C187.225 125.079 185.218 124.809 183.42 124.27C181.681 123.73 180.123 122.981 178.745 122.022C177.426 121.003 176.287 119.865 175.329 118.606L173.8 124H161.844V59.272H175.329V84.6238C176.767 82.5861 178.625 80.9079 180.902 79.5894C183.18 78.2709 185.997 77.6116 189.353 77.6116C193.488 77.6116 197.174 78.6604 200.411 80.7581C203.707 82.7958 206.314 85.6127 208.232 89.2087C210.15 92.7448 211.109 96.8202 211.109 101.435C211.109 105.93 210.15 109.976 208.232 113.572C206.314 117.168 203.737 119.984 200.501 122.022C197.264 124.06 193.578 125.079 189.443 125.079ZM186.117 113.302C188.274 113.302 190.192 112.792 191.87 111.774C193.608 110.755 194.957 109.376 195.916 107.638C196.875 105.84 197.354 103.772 197.354 101.435C197.354 99.0977 196.875 97.03 195.916 95.232C194.957 93.3741 193.608 91.9357 191.87 90.9168C190.192 89.8979 188.274 89.3885 186.117 89.3885C183.899 89.3885 181.921 89.9279 180.183 91.0067C178.505 92.0256 177.186 93.434 176.228 95.232C175.269 96.9701 174.789 99.0378 174.789 101.435C174.789 103.713 175.269 105.75 176.228 107.548C177.186 109.346 178.505 110.755 180.183 111.774C181.921 112.792 183.899 113.302 186.117 113.302ZM213.364 124V59.272H226.849V124H213.364ZM252.225 125.079C247.85 125.079 243.925 124.06 240.448 122.022C236.972 119.984 234.215 117.198 232.178 113.661C230.14 110.065 229.121 105.99 229.121 101.435C229.121 96.7603 230.14 92.6549 232.178 89.1188C234.215 85.5228 236.972 82.7059 240.448 80.6682C243.984 78.6305 247.91 77.6116 252.225 77.6116C256.66 77.6116 260.616 78.6305 264.092 80.6682C267.568 82.7059 270.325 85.5228 272.363 89.1188C274.401 92.6549 275.42 96.7303 275.42 101.345C275.42 105.96 274.401 110.065 272.363 113.661C270.325 117.198 267.568 119.984 264.092 122.022C260.616 124.06 256.66 125.079 252.225 125.079ZM252.225 113.392C254.023 113.392 255.612 112.942 256.99 112.043C258.428 111.144 259.567 109.796 260.406 107.998C261.245 106.2 261.665 103.982 261.665 101.345C261.665 98.7081 261.245 96.4906 260.406 94.6926C259.567 92.8946 258.458 91.5461 257.08 90.6471C255.701 89.7481 254.113 89.2986 252.315 89.2986C250.517 89.2986 248.899 89.7481 247.461 90.6471C246.082 91.5461 244.973 92.8946 244.134 94.6926C243.295 96.4906 242.876 98.7081 242.876 101.345C242.876 103.982 243.295 106.2 244.134 107.998C244.973 109.796 246.082 111.144 247.461 112.043C248.899 112.942 250.487 113.392 252.225 113.392ZM294.398 144.857C289.962 144.857 286.127 144.317 282.89 143.239C279.654 142.22 277.137 140.661 275.339 138.564C273.601 136.466 272.732 133.829 272.732 130.653C272.732 128.375 273.331 126.248 274.53 124.27C275.788 122.292 277.556 120.554 279.834 119.055C282.111 117.497 284.838 116.209 288.015 115.19L292.51 122.022C289.873 122.801 287.895 123.82 286.576 125.079C285.318 126.337 284.688 127.746 284.688 129.304C284.688 130.503 285.108 131.522 285.947 132.361C286.786 133.2 287.925 133.829 289.363 134.249C290.861 134.668 292.51 134.878 294.308 134.878C296.046 134.878 297.544 134.668 298.803 134.249C300.121 133.829 301.14 133.2 301.859 132.361C302.638 131.582 303.028 130.623 303.028 129.484C303.028 127.986 302.519 126.787 301.5 125.888C300.481 124.989 298.383 124.42 295.207 124.18C292.27 123.94 289.603 123.61 287.206 123.191C284.868 122.711 282.77 122.142 280.913 121.483C279.115 120.824 277.556 120.104 276.238 119.325C274.919 118.546 273.9 117.767 273.181 116.988V114.92L283.07 104.042L292.33 106.919L280.373 119.055L284.509 112.223C285.108 112.583 285.737 112.942 286.396 113.302C287.056 113.602 287.865 113.871 288.824 114.111C289.783 114.351 290.981 114.59 292.42 114.83C293.858 115.01 295.716 115.22 297.994 115.459C301.889 115.819 305.096 116.568 307.613 117.707C310.19 118.786 312.078 120.284 313.277 122.202C314.535 124.12 315.164 126.457 315.164 129.214C315.164 131.911 314.415 134.458 312.917 136.856C311.419 139.253 309.141 141.171 306.085 142.609C303.028 144.108 299.132 144.857 294.398 144.857ZM294.487 110.875C290.712 110.875 287.445 110.125 284.688 108.627C281.931 107.129 279.804 105.151 278.305 102.694C276.807 100.176 276.058 97.3596 276.058 94.2431C276.058 91.1865 276.807 88.4296 278.305 85.9723C279.804 83.4551 281.931 81.4473 284.688 79.949C287.445 78.3907 290.712 77.6116 294.487 77.6116C298.323 77.6116 301.62 78.3907 304.376 79.949C307.133 81.4473 309.231 83.4551 310.669 85.9723C312.108 88.4296 312.827 91.1865 312.827 94.2431C312.827 97.3596 312.108 100.176 310.669 102.694C309.231 105.151 307.133 107.129 304.376 108.627C301.62 110.125 298.323 110.875 294.487 110.875ZM294.487 100.716C296.525 100.716 298.203 100.176 299.522 99.0977C300.84 98.0189 301.5 96.4307 301.5 94.333C301.5 92.2353 300.84 90.6471 299.522 89.5683C298.203 88.4895 296.525 87.9501 294.487 87.9501C292.45 87.9501 290.742 88.4895 289.363 89.5683C288.045 90.6471 287.385 92.2353 287.385 94.333C287.385 96.4307 288.045 98.0189 289.363 99.0977C290.742 100.176 292.45 100.716 294.487 100.716ZM302.039 87.9501L300.061 78.6904H318.85V86.3319L302.039 87.9501ZM348.555 125.079C346.338 125.079 344.33 124.809 342.532 124.27C340.794 123.73 339.236 122.981 337.857 122.022C336.539 121.003 335.4 119.865 334.441 118.606L332.913 124H320.956V59.272H334.441V84.6238C335.879 82.5861 337.737 80.9079 340.015 79.5894C342.292 78.2709 345.109 77.6116 348.465 77.6116C352.601 77.6116 356.287 78.6604 359.523 80.7581C362.819 82.7958 365.426 85.6127 367.344 89.2087C369.262 92.7448 370.221 96.8202 370.221 101.435C370.221 105.93 369.262 109.976 367.344 113.572C365.426 117.168 362.849 119.984 359.613 122.022C356.377 124.06 352.691 125.079 348.555 125.079ZM345.229 113.302C347.387 113.302 349.304 112.792 350.983 111.774C352.721 110.755 354.069 109.376 355.028 107.638C355.987 105.84 356.466 103.772 356.466 101.435C356.466 99.0977 355.987 97.03 355.028 95.232C354.069 93.3741 352.721 91.9357 350.983 90.9168C349.304 89.8979 347.387 89.3885 345.229 89.3885C343.011 89.3885 341.034 89.9279 339.296 91.0067C337.617 92.0256 336.299 93.434 335.34 95.232C334.381 96.9701 333.902 99.0378 333.902 101.435C333.902 103.713 334.381 105.75 335.34 107.548C336.299 109.346 337.617 110.755 339.296 111.774C341.034 112.792 343.011 113.302 345.229 113.302ZM394.772 125.079C390.097 125.079 385.991 124.12 382.455 122.202C378.919 120.224 376.132 117.497 374.095 114.021C372.117 110.485 371.128 106.44 371.128 101.885C371.128 97.2098 372.117 93.0444 374.095 89.3885C376.072 85.7326 378.829 82.8558 382.365 80.7581C385.901 78.6604 390.007 77.6116 394.682 77.6116C399.237 77.6116 403.222 78.6005 406.638 80.5783C410.055 82.5561 412.722 85.2531 414.639 88.6693C416.617 92.0256 417.606 95.9212 417.606 100.356C417.606 100.956 417.576 101.645 417.516 102.424C417.516 103.143 417.456 103.892 417.336 104.671H380.747V96.8502H403.851C403.732 94.333 402.803 92.3252 401.065 90.8269C399.386 89.2686 397.289 88.4895 394.772 88.4895C392.854 88.4895 391.116 88.939 389.557 89.838C387.999 90.737 386.741 92.0855 385.782 93.8835C384.883 95.6815 384.433 97.959 384.433 100.716V103.413C384.433 105.511 384.823 107.368 385.602 108.987C386.441 110.605 387.61 111.863 389.108 112.762C390.666 113.661 392.494 114.111 394.592 114.111C396.57 114.111 398.188 113.721 399.446 112.942C400.765 112.103 401.784 111.054 402.503 109.796H416.258C415.419 112.673 413.98 115.28 411.942 117.617C409.905 119.895 407.418 121.723 404.481 123.101C401.544 124.42 398.308 125.079 394.772 125.079ZM441.727 125.079C437.052 125.079 432.947 124.12 429.41 122.202C425.874 120.224 423.088 117.497 421.05 114.021C419.072 110.485 418.083 106.44 418.083 101.885C418.083 97.2098 419.072 93.0444 421.05 89.3885C423.028 85.7326 425.785 82.8558 429.321 80.7581C432.857 78.6604 436.962 77.6116 441.637 77.6116C446.192 77.6116 450.177 78.6005 453.594 80.5783C457.01 82.5561 459.677 85.2531 461.595 88.6693C463.572 92.0256 464.561 95.9212 464.561 100.356C464.561 100.956 464.531 101.645 464.471 102.424C464.471 103.143 464.412 103.892 464.292 104.671H427.702V96.8502H450.807C450.687 94.333 449.758 92.3252 448.02 90.8269C446.342 89.2686 444.244 88.4895 441.727 88.4895C439.809 88.4895 438.071 88.939 436.513 89.838C434.954 90.737 433.696 92.0855 432.737 93.8835C431.838 95.6815 431.388 97.959 431.388 100.716V103.413C431.388 105.511 431.778 107.368 432.557 108.987C433.396 110.605 434.565 111.863 436.063 112.762C437.621 113.661 439.449 114.111 441.547 114.111C443.525 114.111 445.143 113.721 446.402 112.942C447.72 112.103 448.739 111.054 449.458 109.796H463.213C462.374 112.673 460.935 115.28 458.898 117.617C456.86 119.895 454.373 121.723 451.436 123.101C448.499 124.42 445.263 125.079 441.727 125.079Z" fill="#FFC93D"/>
</svg>
