<svg width="340" height="400" viewBox="0 0 340 400" fill="none" xmlns="http://www.w3.org/2000/svg">
<g filter="url(#filter0_i_6_82)">
<path d="M231.007 137.688C265.6 90.709 311.078 108.01 328.369 111.397" stroke="#494946" stroke-width="21.6848" stroke-linecap="round"/>
<path d="M188.537 110.99C218.62 61.0033 185.173 25.662 175.404 11" stroke="#494946" stroke-width="21.6848" stroke-linecap="round"/>
<path d="M136.26 235.775C173.622 260.695 221.755 254.142 243.768 221.139C265.781 188.135 253.337 141.179 215.975 116.259C178.613 91.3386 130.48 97.8914 108.467 130.895C86.454 163.898 98.8973 210.855 136.26 235.775Z" fill="#494946"/>
<path d="M271.181 353.459C253.128 395.178 211.03 389.906 176.077 361.708C141.126 333.507 126.714 269.629 152.049 231.643C177.386 193.658 184.265 186.458 215.079 228.189C243.489 266.663 284.72 313.616 271.181 353.459Z" stroke="#494946" stroke-width="24.3954"/>
<path d="M-26.6907 154.783C-58.273 187.479 -37.2312 224.321 2.23267 245.755C41.6968 267.189 106.21 255.953 131.546 217.968C156.881 179.983 148.891 167.198 98.5238 154.783C52.0889 143.337 4.8904 126.974 -26.6907 154.783Z" stroke="#494946" stroke-width="24.3954"/>
<path fill-rule="evenodd" clip-rule="evenodd" d="M15.78 251.553C-5.83053 294.536 -0.0878584 362.895 26.0884 398.512C63.7813 405.5 133.561 387.545 165.621 351.543C160.79 345.956 156.532 339.633 152.923 332.818C142.334 347.22 121.818 360.125 96.9449 368.671C75.5215 376.036 54.2327 379.009 38.7935 378.183C30.6424 363.491 25.2166 342.902 24.3256 320.721C23.3111 295.472 28.3181 271.887 38.0678 256.058C30.35 255.359 22.8332 253.865 15.78 251.553ZM122.88 228.508C126.115 225.264 129.024 221.748 131.546 217.968C133.205 215.48 134.708 213.037 136.055 210.641C139.849 212.467 143.562 214.579 147.166 216.983C150.698 219.338 154.012 221.899 157.102 224.638C155.4 226.81 153.715 229.145 152.049 231.643C149.538 235.409 147.417 239.429 145.667 243.644C142.506 240.489 138.991 237.595 135.133 235.023C131.199 232.399 127.094 230.231 122.88 228.508Z" fill="#494946"/>
<path d="M121.605 216.225L159.941 241.794L141.888 288.4L165.554 353.058L14.4683 252.287L77.9949 247.414L121.605 216.225Z" fill="#494946"/>
<path d="M11.4427 334.981L90.3685 387.624L29.0966 394.002L11.4427 334.981Z" fill="#494946"/>
<path d="M11.4427 334.981L90.3685 387.624L29.0966 394.002L11.4427 334.981Z" fill="#494946"/>
<path d="M21.9886 241.012L93.5055 288.714L36.69 296.434L21.9886 241.012Z" fill="#494946"/>
<path d="M74.5508 276.069L146.068 323.77L89.2522 331.49L74.5508 276.069Z" fill="#494946"/>
<path d="M46.7938 257.557L121.906 307.656L63.2929 314.177L46.7938 257.557Z" fill="#494946"/>
<path d="M99.356 292.615L174.469 342.715L115.855 349.234L99.356 292.615Z" fill="#494946"/>
</g>
<defs>
<filter id="filter0_i_6_82" x="-54.2014" y="0.156494" width="393.415" height="406.344" filterUnits="userSpaceOnUse" color-interpolation-filters="sRGB">
<feFlood flood-opacity="0" result="BackgroundImageFix"/>
<feBlend mode="normal" in="SourceGraphic" in2="BackgroundImageFix" result="shape"/>
<feColorMatrix in="SourceAlpha" type="matrix" values="0 0 0 0 0 0 0 0 0 0 0 0 0 0 0 0 0 0 127 0" result="hardAlpha"/>
<feOffset dy="8"/>
<feGaussianBlur stdDeviation="3.25"/>
<feComposite in2="hardAlpha" operator="arithmetic" k2="-1" k3="1"/>
<feColorMatrix type="matrix" values="0 0 0 0 0 0 0 0 0 0 0 0 0 0 0 0 0 0 0.85 0"/>
<feBlend mode="normal" in2="shape" result="effect1_innerShadow_6_82"/>
</filter>
</defs>
</svg>
