<svg width="69" height="70" viewBox="0 0 69 70" fill="none" xmlns="http://www.w3.org/2000/svg">
<path d="M24.3466 14.3706L44.926 14.5926C45.7025 14.601 46.4158 15.0223 46.798 15.6982L56.9743 33.6953C57.3566 34.3712 57.3499 35.1996 56.9568 35.8693L46.5391 53.6185C46.1438 54.2919 45.4183 54.7021 44.6376 54.6937L24.0582 54.4716C23.2816 54.4633 22.5684 54.042 22.1861 53.366L12.0098 35.369C11.6276 34.693 11.6343 33.8647 12.0274 33.195L22.4451 15.4458C22.8403 14.7724 23.5658 14.3622 24.3466 14.3706Z" stroke="#FFC93D" stroke-width="3.8107"/>
<path d="M31.4602 24.6623L37.9644 24.7324C39.4966 24.749 40.904 25.5802 41.6582 26.914L44.8912 32.6317C45.6454 33.9655 45.6322 35.5999 44.8566 36.9214L41.564 42.5311C40.7842 43.8598 39.3527 44.6692 37.8122 44.6526L31.3079 44.5824C29.7758 44.5658 28.3684 43.7346 27.6142 42.4009L24.3812 36.6831C23.627 35.3493 23.6402 33.7149 24.4158 32.3934L27.7084 26.7837C28.4882 25.4551 29.9197 24.6456 31.4602 24.6623Z" fill="#FFC93D" stroke="#FFC93D" stroke-width="3.38336"/>
</svg>
