<svg width="17" height="17" viewBox="0 0 17 17" fill="none" xmlns="http://www.w3.org/2000/svg">
<path fill-rule="evenodd" clip-rule="evenodd" d="M8.50001 0C3.80546 0 9.03677e-06 3.80545 9.03677e-06 8.5C-0.000711593 9.75237 0.275319 10.9894 0.808359 12.1227L0.017859 15.9791C-0.0102854 16.1168 -0.00384819 16.2594 0.0365943 16.394C0.0770367 16.5286 0.150223 16.651 0.2496 16.7504C0.348978 16.8498 0.471446 16.923 0.606043 16.9634C0.74064 17.0039 0.883164 17.0103 1.02086 16.9821L4.87731 16.1916C5.97721 16.7101 7.20631 16.9991 8.50001 16.9991C13.1946 16.9991 17 13.1946 17 8.49915C17 3.80545 13.1946 0 8.50001 0Z" fill="#DADADA"/>
</svg>
