<svg width="14" height="15" viewBox="0 0 14 15" fill="none" xmlns="http://www.w3.org/2000/svg">
<path d="M11.1496 14.625C10.625 14.625 10.1798 14.4416 9.81404 14.0748C9.44882 13.7075 9.26621 13.2615 9.26621 12.7369C9.26621 12.6577 9.30104 12.4579 9.37071 12.1376L3.67308 8.75479C3.50208 8.95218 3.29282 9.10708 3.04529 9.2195C2.79776 9.33192 2.53203 9.38813 2.24808 9.38813C1.72769 9.38813 1.28542 9.20288 0.92125 8.83237C0.557083 8.46187 0.375 8.01775 0.375 7.5C0.375 6.98225 0.557083 6.53813 0.92125 6.16763C1.28542 5.79713 1.72769 5.61188 2.24808 5.61188C2.5315 5.61188 2.79724 5.66808 3.04529 5.7805C3.29335 5.89292 3.50261 6.04808 3.67308 6.246L9.3715 2.87746C9.33456 2.77507 9.3079 2.67347 9.29154 2.57267C9.27465 2.47133 9.26621 2.36789 9.26621 2.26233C9.26621 1.73825 9.45014 1.29254 9.818 0.925208C10.1859 0.558403 10.6324 0.375 11.1575 0.375C11.6826 0.375 12.1281 0.558931 12.4938 0.926792C12.8596 1.29465 13.0422 1.74115 13.0417 2.26629C13.0411 2.79143 12.8577 3.23688 12.4915 3.60263C12.1252 3.96838 11.6792 4.15099 11.1535 4.15046C10.8675 4.15046 10.6036 4.09188 10.3619 3.97471C10.1202 3.85754 9.91432 3.7 9.74437 3.50208L4.04517 6.88487C4.08211 6.98726 4.10876 7.08913 4.12512 7.19046C4.14201 7.29126 4.15046 7.39444 4.15046 7.5C4.15046 7.60556 4.14201 7.70874 4.12512 7.80954C4.10824 7.91035 4.08185 8.01221 4.04596 8.11513L9.74437 11.4979C9.91485 11.3 10.1207 11.1425 10.3619 11.0253C10.6036 10.9081 10.8675 10.8495 11.1535 10.8495C11.6782 10.8495 12.1241 11.0332 12.4915 11.4005C12.8583 11.7689 13.0417 12.2157 13.0417 12.7408C13.0417 13.266 12.8577 13.7114 12.4899 14.0772C12.122 14.4429 11.6747 14.6255 11.1496 14.625ZM11.1535 13.8333C11.4644 13.8333 11.7249 13.7283 11.9349 13.5182C12.145 13.3082 12.25 13.048 12.25 12.7377C12.25 12.4273 12.145 12.1669 11.9349 11.9563C11.7249 11.7457 11.4647 11.6407 11.1543 11.6412C10.844 11.6417 10.5835 11.7468 10.373 11.9563C10.1624 12.1658 10.0573 12.426 10.0579 12.7369C10.0584 13.0477 10.1634 13.3082 10.373 13.5182C10.5825 13.7283 10.8422 13.8333 11.1535 13.8333ZM2.24808 8.59567C2.56264 8.59567 2.82653 8.49064 3.03975 8.28058C3.25244 8.07053 3.35879 7.81033 3.35879 7.5C3.35879 7.18967 3.25244 6.92947 3.03975 6.71942C2.82706 6.50936 2.56317 6.40433 2.24808 6.40433C1.94144 6.40433 1.68468 6.50936 1.47779 6.71942C1.2709 6.92947 1.16719 7.18967 1.16667 7.5C1.16614 7.81033 1.26985 8.07079 1.47779 8.28138C1.68574 8.49196 1.9425 8.59672 2.24808 8.59567ZM11.1543 3.35879C11.4647 3.35879 11.7249 3.25376 11.9349 3.04371C12.145 2.83365 12.25 2.57319 12.25 2.26233C12.25 1.95147 12.145 1.69128 11.9349 1.48175C11.7249 1.27222 11.4647 1.16719 11.1543 1.16667C10.844 1.16614 10.5835 1.27117 10.373 1.48175C10.1624 1.69233 10.0573 1.95279 10.0579 2.26313C10.0584 2.57346 10.1634 2.83365 10.373 3.04371C10.5825 3.25376 10.8429 3.35879 11.1543 3.35879Z" fill="white"/>
</svg>
