<svg width="20" height="21" viewBox="0 0 20 21" fill="none" xmlns="http://www.w3.org/2000/svg">
<path d="M12.6837 1.08276H7.364C6.38466 1.08276 5.59076 1.89606 5.59076 2.89932C5.59076 3.90257 6.38466 4.71587 7.364 4.71587H12.6837C13.663 4.71587 14.4569 3.90257 14.4569 2.89932C14.4569 1.89606 13.663 1.08276 12.6837 1.08276Z" stroke="#9DB2CE" stroke-width="1.80164" stroke-linecap="round" stroke-linejoin="round"/>
<path d="M15.3436 4.71582H4.70414C3.72481 4.71582 2.9309 5.52912 2.9309 6.53237C2.9309 7.53563 3.72481 8.34893 4.70414 8.34893H15.3436C16.3229 8.34893 17.1168 7.53563 17.1168 6.53237C17.1168 5.52912 16.3229 4.71582 15.3436 4.71582Z" stroke="#9DB2CE" stroke-width="1.80164" stroke-linecap="round" stroke-linejoin="round"/>
<path d="M11.7971 11.982H17.1168C17.5871 11.982 18.0381 11.7906 18.3707 11.4499C18.7032 11.1093 18.89 10.6472 18.89 10.1654C18.89 9.68365 18.7032 9.2216 18.3707 8.88093C18.0381 8.54026 17.5871 8.34888 17.1168 8.34888H2.9309C2.46061 8.34888 2.00958 8.54026 1.67703 8.88093C1.34449 9.2216 1.15767 9.68365 1.15767 10.1654C1.15767 10.6472 1.34449 11.1093 1.67703 11.4499C2.00958 11.7906 2.46061 11.982 2.9309 11.982H8.25061" stroke="#9DB2CE" stroke-width="1.80164" stroke-linecap="round" stroke-linejoin="round"/>
<path d="M11.7971 10.1654C11.7971 9.16218 11.0032 8.34888 10.0238 8.34888C9.04452 8.34888 8.25061 9.16218 8.25061 10.1654V13.7985C8.25061 14.8018 9.04452 15.6151 10.0238 15.6151C11.0032 15.6151 11.7971 14.8018 11.7971 13.7985V10.1654Z" stroke="#9DB2CE" stroke-width="1.80164" stroke-linecap="round" stroke-linejoin="round"/>
<path d="M16.2302 11.9822C16.7005 11.9822 17.1515 12.1736 17.484 12.5142C17.8166 12.8549 18.0034 13.317 18.0034 13.7987C18.0034 14.2805 17.8166 14.7426 17.484 15.0832C17.1515 15.4239 16.7005 15.6153 16.2302 15.6153H3.81752C3.34723 15.6153 2.8962 15.4239 2.56365 15.0832C2.2311 14.7426 2.04428 14.2805 2.04428 13.7987C2.04428 13.317 2.2311 12.8549 2.56365 12.5142C2.8962 12.1736 3.34723 11.9822 3.81752 11.9822" stroke="#9DB2CE" stroke-width="1.80164" stroke-linecap="round" stroke-linejoin="round"/>
<path d="M14.4569 15.6152H5.59076C4.61142 15.6152 3.81752 16.4285 3.81752 17.4318C3.81752 18.435 4.61142 19.2483 5.59076 19.2483H14.4569C15.4363 19.2483 16.2302 18.435 16.2302 17.4318C16.2302 16.4285 15.4363 15.6152 14.4569 15.6152Z" stroke="#9DB2CE" stroke-width="1.80164" stroke-linecap="round" stroke-linejoin="round"/>
</svg>
