<svg width="20" height="22" viewBox="0 0 20 22" fill="none" xmlns="http://www.w3.org/2000/svg">
<path d="M13 20.6272V12.6272C13 12.362 12.8946 12.1076 12.7071 11.9201C12.5196 11.7326 12.2652 11.6272 12 11.6272H8C7.73478 11.6272 7.48043 11.7326 7.29289 11.9201C7.10536 12.1076 7 12.362 7 12.6272V20.6272" stroke="#9DB2CE" stroke-width="2" stroke-linecap="round" stroke-linejoin="round"/>
<path d="M1 9.62716C0.99993 9.33623 1.06333 9.04879 1.18579 8.78488C1.30824 8.52098 1.4868 8.28696 1.709 8.09916L8.709 2.10017C9.06999 1.79507 9.52736 1.62769 10 1.62769C10.4726 1.62769 10.93 1.79507 11.291 2.10017L18.291 8.09916C18.5132 8.28696 18.6918 8.52098 18.8142 8.78488C18.9367 9.04879 19.0001 9.33623 19 9.62716V18.6272C19 19.1576 18.7893 19.6663 18.4142 20.0414C18.0391 20.4165 17.5304 20.6272 17 20.6272H3C2.46957 20.6272 1.96086 20.4165 1.58579 20.0414C1.21071 19.6663 1 19.1576 1 18.6272V9.62716Z" stroke="#9DB2CE" stroke-width="2" stroke-linecap="round" stroke-linejoin="round"/>
</svg>
