<svg width="20" height="23" viewBox="0 0 20 23" fill="none" xmlns="http://www.w3.org/2000/svg">
<path d="M3.08947 19.2792C2.48314 18.2188 2.20967 17.0006 2.30459 15.7829C2.39951 14.5651 2.85842 13.404 3.62173 12.4504L7.56633 7.53697C7.65725 7.42336 7.77868 7.33803 7.91638 7.291C8.05409 7.24396 8.20235 7.23718 8.34377 7.27144C8.48519 7.30571 8.61391 7.37959 8.71481 7.48443C8.81572 7.58927 8.88464 7.72072 8.91347 7.86335L9.02752 8.48431C9.12747 8.9312 9.01847 9.40132 8.73664 9.75906L6.91797 12.0307L7.20082 12.53L15.0337 8.08819C15.4949 7.82393 16.0752 7.98145 16.3489 8.44587C16.6037 8.90378 16.4429 9.49356 15.9945 9.75162L10.1493 13.0588L10.5317 13.7298L17.6968 9.6609C18.1579 9.39664 18.7477 9.55742 19.0025 10.0153C19.2668 10.4765 19.1028 11.0757 18.6259 11.324L11.4703 15.3962L11.8526 16.0672L18.0192 12.564C18.4803 12.2998 19.0701 12.4606 19.3249 12.9185C19.5797 13.3764 19.4284 13.9694 18.977 14.2053L12.804 17.7274L13.1769 18.3952L17.343 16.0329C17.8041 15.7686 18.3939 15.9294 18.6582 16.3905C18.9224 16.8517 18.7522 17.4382 18.3008 17.6741L11.4567 21.5786C10.7565 21.9778 9.98448 22.235 9.18477 22.3355C8.38506 22.436 7.57339 22.3777 6.79621 22.1642C6.01903 21.9506 5.2916 21.5858 4.65555 21.0908C4.0195 20.5957 3.48732 19.9801 3.08947 19.2792ZM10.5667 8.89796L14.3003 6.77803C14.6151 6.60088 14.9737 6.48108 15.328 6.4656L15.9413 5.85182C16.0314 5.76368 16.103 5.65843 16.152 5.54225C16.2009 5.42606 16.2261 5.30128 16.2262 5.17521C16.2263 5.04914 16.2012 4.92433 16.1524 4.80809C16.1035 4.69186 16.032 4.58653 15.942 4.4983C15.7617 4.3204 15.5186 4.22059 15.2654 4.22046C15.0121 4.22033 14.7689 4.31988 14.5885 4.4976L10.5418 8.54036C10.5532 8.66065 10.5741 8.78419 10.5667 8.89796ZM10.406 7.55234L10.3898 7.59962L14.8643 3.14363C15.0417 2.96185 15.1403 2.71745 15.1386 2.46345C15.137 2.20946 15.0353 1.96635 14.8556 1.78687C14.7672 1.69709 14.6619 1.62579 14.5457 1.57709C14.4296 1.5284 14.3049 1.50329 14.1789 1.50322C14.053 1.50315 13.9283 1.52813 13.8121 1.57671C13.6959 1.62528 13.5905 1.69648 13.502 1.78616L9.24453 6.04189C9.8233 6.35752 10.2418 6.89294 10.406 7.55234ZM2.4546 11.5091L6.3992 6.5957C6.89867 5.97447 7.66039 5.69736 8.42487 5.78081L11.8775 2.32672C12.0564 2.14694 12.1569 1.9037 12.157 1.6501C12.1571 1.39651 12.0569 1.15316 11.8783 0.973202C11.7899 0.883431 11.6846 0.812124 11.5684 0.763429C11.4523 0.714734 11.3276 0.689623 11.2016 0.689557C11.0757 0.689491 10.951 0.714472 10.8348 0.763046C10.7186 0.81162 10.6132 0.882817 10.5247 0.972496L4.13389 7.33865L3.74253 6.93949L4.8885 4.2564C5.07283 3.84395 5.04915 3.35986 4.85076 2.95311L4.56559 2.36841C4.26119 1.80882 3.43873 1.83233 3.18309 2.42118L0.662472 8.20569C-0.124615 10.0922 0.0914809 12.229 1.1882 13.8969C1.45579 13.0584 1.87498 12.2403 2.4546 11.5091Z" fill="#DADADA"/>
</svg>
