<svg width="23" height="23" viewBox="0 0 23 23" fill="none" xmlns="http://www.w3.org/2000/svg">
<path d="M20.7178 11.514V16.1159C20.7178 18.877 18.877 20.7177 16.1159 20.7177H6.91218C4.15105 20.7177 2.3103 18.877 2.3103 16.1159V11.514C2.3103 9.01056 3.81972 7.26185 6.16667 6.96733C6.40597 6.93051 6.65447 6.91211 6.91218 6.91211H16.1159C16.3552 6.91211 16.5853 6.9213 16.8062 6.95812C19.1808 7.23423 20.7178 8.99216 20.7178 11.514Z" stroke="#9DB2CE" stroke-width="1.38056" stroke-linecap="round" stroke-linejoin="round"/>
<path d="M16.8075 6.95819C16.5866 6.92138 16.3565 6.91219 16.1172 6.91219H6.91347C6.65577 6.91219 6.40727 6.93059 6.16797 6.96741C6.29682 6.7097 6.4809 6.47041 6.70179 6.24952L9.693 3.24908C10.9539 1.99738 12.9971 1.99738 14.2581 3.24908L15.8687 4.87817C16.4578 5.458 16.7707 6.19428 16.8075 6.95819Z" stroke="#9DB2CE" stroke-width="1.38056" stroke-linecap="round" stroke-linejoin="round"/>
<path d="M20.7178 11.9741H17.9567C16.9442 11.9741 16.1159 12.8025 16.1159 13.8149C16.1159 14.8273 16.9442 15.6556 17.9567 15.6556H20.7178" stroke="#9DB2CE" stroke-width="1.38056" stroke-linecap="round" stroke-linejoin="round"/>
</svg>
