<svg width="23" height="23" viewBox="0 0 23 23" fill="none" xmlns="http://www.w3.org/2000/svg">
<path d="M20.7178 11.5145V16.1163C20.7178 18.8775 18.877 20.7182 16.1159 20.7182H6.91218C4.15105 20.7182 2.3103 18.8775 2.3103 16.1163V11.5145C2.3103 9.01105 3.81972 7.26234 6.16667 6.96782C6.40597 6.931 6.65447 6.9126 6.91218 6.9126H16.1159C16.3552 6.9126 16.5853 6.92179 16.8062 6.95861C19.1808 7.23472 20.7178 8.99264 20.7178 11.5145Z" stroke="#FFC93D" stroke-width="1.38056" stroke-linecap="round" stroke-linejoin="round"/>
<path d="M16.8075 6.95844C16.5866 6.92162 16.3565 6.91243 16.1172 6.91243H6.91347C6.65577 6.91243 6.40727 6.93084 6.16797 6.96765C6.29682 6.70995 6.4809 6.47065 6.70179 6.24976L9.693 3.24933C10.9539 1.99762 12.9971 1.99762 14.2581 3.24933L15.8687 4.87841C16.4578 5.45825 16.7707 6.19453 16.8075 6.95844Z" stroke="#FFC93D" stroke-width="1.38056" stroke-linecap="round" stroke-linejoin="round"/>
<path d="M20.7178 11.9746H17.9567C16.9442 11.9746 16.1159 12.8029 16.1159 13.8154C16.1159 14.8278 16.9442 15.6561 17.9567 15.6561H20.7178" stroke="#FFC93D" stroke-width="1.38056" stroke-linecap="round" stroke-linejoin="round"/>
</svg>
